<svg xmlns="http://www.w3.org/2000/svg" width="258" height="258" viewBox="146 106 258 258">
  <path d="m 275.00006,144.01567 c -50.24931,0 -90.98439,40.73508 -90.98439,90.98439 0,19.73338 6.28222,37.99963 16.95585,52.90742 3.6904,-0.42384 7.38372,-0.81545 11.07997,-1.17484 -1.67502,-2.03691 -3.26418,-4.17505 -4.75917,-6.41326 -31.78098,-47.57847 -4.28059,-110.99015 49.8723,-123.80075 -2.86783,5.74328 -4.29788,11.06643 -7.43342,22.3179 -2.76388,-0.56479 -3.82203,-1.47827 -7.06369,-7.71684 0,0 0.37395,6.35424 6.16726,10.71364 -4.88905,15.82287 -13.41838,19.18406 -18.00661,20.99215 -4.39705,1.7328 -5.17428,2.03907 4.34234,10.52098 -0.16013,3.985 -1.71142,6.78357 -2.87568,8.88406 -1.70755,3.08096 -2.58316,4.66068 2.98167,6.27986 -8.38342,4.35178 -5.67834,6.5519 -3.22972,8.54332 l 9.1e-4,6.8e-4 c 1.10353,0.8979 2.15497,1.75316 2.11482,2.74409 -0.058,1.45837 -0.93896,2.70519 -1.9747,4.17141 -1.6144,2.28553 -3.60492,5.10354 -3.44296,10.08482 0.2659,8.17586 31.30295,7.62654 41.73738,11.33984 10.34094,3.67918 16.89739,10.30853 20.43202,18.47893 7.25612,0.17742 14.50189,0.47539 21.73742,0.89506 8.75042,-26.75737 -6.00724,-43.82366 -31.04535,-69.85122 -15.06349,-11.61962 -24.80234,-40.27242 -20.26529,-59.27178 4.2459,-0.77281 8.52251,-1.20645 12.78751,-1.30089 0.53965,14.66662 5.66423,44.68225 34.78936,76.06425 16.05988,17.30262 23.01678,38.43852 18.01605,55.34569 3.25838,0.26158 6.51562,0.54704 9.76945,0.85753 15.65159,-24.80576 -1.75827,-43.82877 -22.12399,-66.08105 -16.6945,-18.24135 -35.37496,-38.6529 -39.45834,-66.1999 0.18947,-0.002 0.37872,-0.003 0.5682,-0.004 l 0.53965,2e-5 c 25.92771,0.0856 51.21113,12.50759 66.55906,35.48706 8.93694,13.37812 13.27803,28.49711 13.402,43.52818 v 1.32735 c -0.15354,18.71856 -6.83748,37.21637 -19.32167,51.95811 4.05677,0.38782 8.11012,0.81431 12.16006,1.27947 10.67361,-14.90779 16.95608,-33.17405 16.95608,-52.90742 0,-50.24931 -40.73485,-90.98439 -90.98439,-90.98439 z" style="fill:#ffffff" />
  <path fill-rule="evenodd" d="m 162.84189,295.50354 c 8.68435,16.06443 20.71932,30.05214 35.16842,41.026 51.11435,-6.59409 102.8657,-6.59409 153.97959,0 14.44946,-10.97385 26.48442,-24.96157 35.16888,-41.026 -37.10116,-6.52358 -74.62995,-9.78537 -112.15851,-9.78537 -37.52856,0 -75.05712,3.26179 -112.15839,9.78537 z m 53.56069,11.46744 c 0.0916,-0.13989 0.1847,-0.30139 0.27932,-0.48222 0.0945,-0.18197 0.1864,-0.36849 0.27546,-0.56069 0.0891,-0.1922 0.17355,-0.38441 0.25362,-0.57548 0.0801,-0.1922 0.1491,-0.36735 0.20699,-0.52771 l 1.48054,-0.13648 0.0131,0.14216 c -0.0744,0.12965 -0.18652,0.29342 -0.33641,0.49132 -0.1499,0.19789 -0.31708,0.40488 -0.50167,0.62211 -0.18447,0.21723 -0.37508,0.42876 -0.57184,0.63575 -0.19687,0.20699 -0.38179,0.38213 -0.55489,0.52543 l -0.52737,0.0489 z m 57.88621,7.47096 -2.68154,0.0102 -0.0157,-4.16254 3.35368,-0.0125 -0.003,-0.67897 -3.35368,0.0136 -0.014,-3.70079 2.33534,-0.008 c 0.20824,-10e-4 0.386,0.0284 0.53328,0.0887 0.14728,0.0614 0.26988,0.1433 0.36758,0.2468 0.0977,0.10349 0.17276,0.22405 0.22541,0.3628 0.0525,0.13761 0.0881,0.28319 0.10679,0.43673 l 0.0702,0.59709 0.71969,-0.002 -0.0771,-2.43042 -7.00614,0.0262 0.002,0.58457 0.17651,-10e-4 c 0.15831,0 0.30662,0.0102 0.4448,0.033 0.13807,0.022 0.25931,0.0679 0.36371,0.13761 0.10433,0.0697 0.18618,0.17022 0.24554,0.30139 0.0593,0.13079 0.0894,0.3048 0.0902,0.52202 l 0.0258,6.82952 c 8e-4,0.20358 -0.0291,0.36735 -0.0897,0.49245 -0.0606,0.1251 -0.14285,0.2195 -0.2468,0.28319 -0.10384,0.0637 -0.22473,0.10577 -0.36269,0.12624 -0.13796,0.0216 -0.28387,0.0318 -0.43775,0.033 h -0.17651 l 0.002,0.58457 7.45424,-0.0284 0.0859,-2.43156 -0.72651,0.003 -0.0927,0.59709 c -0.0221,0.15467 -0.0623,0.30025 -0.12055,0.439 -0.0583,0.13799 -0.13932,0.25931 -0.24304,0.36394 -0.10372,0.10463 -0.23353,0.18766 -0.38941,0.24907 -0.15592,0.0614 -0.34483,0.0933 -0.56661,0.0944 z m 3.17148,0.68693 0.006,-0.58344 0.17651,10e-4 c 0.15843,0.002 0.30673,-0.008 0.44503,-0.0284 0.13818,-0.0216 0.25976,-0.0671 0.36462,-0.13648 0.10475,-0.0682 0.1872,-0.16832 0.24736,-0.29911 0.0602,-0.13079 0.0913,-0.3048 0.0936,-0.52202 l 0.0681,-6.76128 c 0.002,-0.21723 -0.0255,-0.39123 -0.083,-0.52316 -0.0574,-0.13193 -0.13796,-0.23428 -0.24134,-0.3048 -0.10338,-0.0717 -0.22394,-0.11942 -0.36178,-0.1433 -0.13773,-0.0239 -0.28592,-0.0364 -0.44423,-0.0387 l -0.17651,-10e-4 0.006,-0.58344 4.04608,0.0398 -0.006,0.58457 -0.18333,-0.002 c -0.15388,-10e-4 -0.29991,0.007 -0.43809,0.0262 -0.1383,0.0193 -0.25976,0.0626 -0.36462,0.12852 -0.10475,0.0671 -0.18834,0.16263 -0.25066,0.2866 -0.0623,0.12397 -0.0945,0.28774 -0.0966,0.49132 l -0.0777,7.70524 2.7425,0.0273 c 0.20824,0.002 0.38623,-0.0341 0.53408,-0.10691 0.14785,-0.0728 0.26988,-0.16946 0.3661,-0.28774 0.0963,-0.11904 0.1712,-0.25324 0.22473,-0.40261 0.0536,-0.14785 0.0901,-0.29684 0.10975,-0.44696 l 0.14626,-1.03722 0.7264,0.008 -0.12522,2.98543 z m 8.58632,-0.49018 -0.014,0.58457 7.45219,0.17742 0.1665,-2.98315 -0.72617,-0.0182 -0.1607,1.03608 c -0.0216,0.14899 -0.0603,0.29684 -0.11589,0.44469 -0.0556,0.14785 -0.13238,0.28091 -0.23019,0.39919 -0.0979,0.11714 -0.22132,0.21154 -0.37008,0.28319 -0.14887,0.0705 -0.32743,0.10349 -0.53556,0.099 l -2.74193,-0.066 0.18458,-7.70297 c 0.005,-0.20358 0.0394,-0.36735 0.10338,-0.49018 0.064,-0.12283 0.14899,-0.21723 0.25464,-0.28205 0.10566,-0.066 0.2278,-0.10691 0.36621,-0.12397 0.13852,-0.0171 0.28467,-0.0239 0.43854,-0.0205 l 0.18322,0.005 0.014,-0.58344 -4.04505,-0.0967 -0.014,0.58344 0.17651,0.005 c 0.15831,0.003 0.30628,0.0182 0.44378,0.0444 0.13739,0.0262 0.25737,0.0751 0.35973,0.14785 0.10236,0.0728 0.1814,0.17514 0.23713,0.30821 0.0556,0.13193 0.0809,0.30707 0.0756,0.5243 l -0.16184,6.76014 c -0.005,0.21723 -0.0388,0.3901 -0.10077,0.51975 -0.062,0.13079 -0.1458,0.2286 -0.25157,0.29684 -0.10577,0.0671 -0.22792,0.11146 -0.36644,0.13079 -0.13852,0.0193 -0.28706,0.0262 -0.44537,0.0227 z m -18.99322,-6.9023 c 0.006,0.31276 -0.0334,0.58685 -0.11737,0.82455 -0.084,0.23656 -0.2013,0.44469 -0.352,0.62324 -0.15058,0.17969 -0.33001,0.33133 -0.53829,0.45492 -0.20824,0.12397 -0.43377,0.2286 -0.6767,0.31503 l 10e-4,0.0534 c 0.31776,0.0489 0.60903,0.13648 0.87391,0.26272 0.26488,0.12624 0.49314,0.29342 0.68466,0.50041 0.19164,0.20699 0.3421,0.45265 0.4514,0.73811 0.10941,0.28546 0.16741,0.61187 0.17401,0.97808 0.0164,0.8962 -0.26556,1.57289 -0.8457,2.02895 -0.58025,0.45606 -1.47213,0.69603 -2.67585,0.71764 l -4.14059,0.0751 -0.0106,-0.58344 0.17651,-0.003 c 0.15831,-0.002 0.30639,-0.0171 0.44389,-0.0421 0.13761,-0.025 0.25783,-0.0739 0.36064,-0.14558 0.10281,-0.0716 0.18242,-0.17401 0.23883,-0.30594 0.0565,-0.13306 0.0827,-0.30707 0.0788,-0.5243 l -0.12408,-6.81587 c -0.004,-0.20358 -0.0373,-0.36621 -0.10065,-0.49018 -0.0633,-0.12283 -0.14762,-0.21723 -0.25294,-0.28433 -0.10531,-0.066 -0.22723,-0.10691 -0.36553,-0.1251 -0.13841,-0.0182 -0.28455,-0.025 -0.43843,-0.0227 l -0.17651,0.003 -0.0106,-0.58344 3.72649,-0.0682 c 1.20372,-0.0216 2.10333,0.1615 2.69894,0.55159 0.59549,0.3901 0.90109,1.0122 0.91667,1.86745 z m 30.29609,7.10929 2.67926,0.10122 c 0.22177,0.009 0.4117,-0.0148 0.56979,-0.0694 0.15922,-0.0557 0.29229,-0.13306 0.40033,-0.23315 0.10804,-0.10008 0.19334,-0.21836 0.25817,-0.3537 0.0637,-0.13534 0.10918,-0.27978 0.13761,-0.43331 l 0.11828,-0.59254 0.7256,0.0273 -0.18652,2.42473 -7.44912,-0.28205 0.0221,-0.58344 0.1764,0.007 c 0.15376,0.006 0.30002,10e-4 0.43866,-0.0136 0.13875,-0.0148 0.26135,-0.0523 0.36769,-0.11146 0.10645,-0.0603 0.19255,-0.15012 0.25828,-0.27295 0.0659,-0.12169 0.10258,-0.28433 0.1102,-0.4879 l 0.25828,-6.82497 c 0.008,-0.21723 -0.0147,-0.39237 -0.0685,-0.52543 -0.0538,-0.1342 -0.13147,-0.2377 -0.23281,-0.31162 -0.10137,-0.0736 -0.2206,-0.12435 -0.35768,-0.1524 -0.13716,-0.0284 -0.28478,-0.0444 -0.44309,-0.0512 l -0.1764,-0.007 0.0221,-0.58344 7.00114,0.26499 -0.0239,2.43156 -0.71878,-0.0273 -0.0455,-0.59936 c -0.0125,-0.15467 -0.0421,-0.30139 -0.0887,-0.44127 -0.0466,-0.13989 -0.11714,-0.26385 -0.2104,-0.3719 -0.0933,-0.10804 -0.21268,-0.19448 -0.35711,-0.26158 -0.14444,-0.066 -0.32072,-0.10349 -0.52885,-0.11146 l -2.33364,-0.0887 -0.13989,3.69738 3.35152,0.12738 -0.0262,0.67783 -3.35107,-0.12624 z m -44.22273,-0.0182 -2.67972,0.10236 -0.15809,-4.15912 3.35141,-0.12738 -0.0258,-0.67783 -3.3513,0.12738 -0.14057,-3.69738 2.33375,-0.0887 c 0.20801,-0.008 0.38668,0.0159 0.53601,0.0717 0.14933,0.0546 0.27455,0.13306 0.37577,0.23315 0.10122,0.10008 0.18038,0.21836 0.2377,0.35484 0.0572,0.13534 0.0978,0.27978 0.12169,0.43331 l 0.0905,0.59481 0.71912,-0.0273 -0.16013,-2.42701 -7.00102,0.26613 0.0222,0.58344 0.17628,-0.007 c 0.15831,-0.006 0.30684,0 0.44571,0.0171 0.13875,0.0182 0.26158,0.0591 0.36826,0.12624 0.10668,0.066 0.19186,0.16263 0.25567,0.29229 0.0638,0.12852 0.0997,0.30139 0.10804,0.51861 l 0.25931,6.82497 c 0.008,0.20358 -0.0166,0.36849 -0.0729,0.49473 -0.0563,0.12738 -0.13534,0.22405 -0.2369,0.29115 -0.10168,0.0671 -0.22098,0.11373 -0.35814,0.13989 -0.13727,0.025 -0.28273,0.0409 -0.4365,0.0466 l -0.1764,0.007 0.0222,0.58344 7.44889,-0.28319 0.003,-2.43156 -0.72594,0.0273 -0.0722,0.6005 c -0.0168,0.15467 -0.052,0.30252 -0.10554,0.44241 -0.0536,0.13989 -0.13034,0.26385 -0.23042,0.3719 -0.10008,0.10804 -0.22701,0.19562 -0.38066,0.26272 -0.15376,0.0671 -0.34142,0.10463 -0.56297,0.11259 z m 51.74805,0.33323 5.66492,-8.38307 0.0296,-0.56979 -6.58386,-0.33778 -0.1922,2.4236 0.71878,0.0364 0.099,-0.59254 c 0.025,-0.1524 0.0648,-0.29684 0.11714,-0.43218 0.0523,-0.13534 0.12397,-0.25362 0.21495,-0.35256 0.091,-0.10008 0.20699,-0.17628 0.34802,-0.23087 0.14103,-0.0534 0.3139,-0.0751 0.51747,-0.0648 l 3.01613,0.15467 -5.65127,8.39786 -0.0284,0.55614 7.0638,0.3628 0.19334,-2.42473 -0.71878,-0.0364 -0.099,0.59254 c -0.0262,0.15354 -0.0648,0.29797 -0.11714,0.43331 -0.0523,0.13534 -0.12397,0.25248 -0.21495,0.35256 -0.091,0.099 -0.20926,0.17628 -0.35143,0.22974 -0.1433,0.0538 -0.3192,0.0754 -0.52771,0.0648 z m -42.36188,-5.44656 0.96387,-0.0182 c 0.40723,-0.008 0.74596,-0.05 1.01618,-0.12738 0.27011,-0.0773 0.48529,-0.19334 0.64542,-0.34688 0.16025,-0.15467 0.27318,-0.35256 0.33892,-0.59367 0.0658,-0.24111 0.0957,-0.52923 0.0895,-0.86435 -0.006,-0.33892 -0.0498,-0.62211 -0.1309,-0.84957 -0.0811,-0.22746 -0.20881,-0.40943 -0.38339,-0.54704 -0.17446,-0.13648 -0.39919,-0.23201 -0.67397,-0.2866 -0.27489,-0.0534 -0.60914,-0.0762 -1.00288,-0.0694 l -0.92986,0.0171 z m -16.24867,1.09637 c 0.0404,0.75972 -0.018,1.45082 -0.17526,2.07331 -0.15718,0.62211 -0.41193,1.15891 -0.76404,1.61042 -0.35211,0.45151 -0.80453,0.80976 -1.35703,1.07248 -0.55262,0.26272 -1.20623,0.41398 -1.96105,0.45378 l -4.25056,0.22632 -0.031,-0.5823 0.17628,-0.0102 c 0.1582,-0.008 0.30559,-0.0273 0.44218,-0.0569 0.1367,-0.0307 0.2551,-0.083 0.35529,-0.15809 0.10031,-0.0762 0.17628,-0.18083 0.22803,-0.31503 0.0517,-0.1342 0.0719,-0.31048 0.0604,-0.52657 l -0.36223,-6.80677 c -0.0109,-0.20358 -0.0502,-0.36507 -0.11771,-0.48677 -0.0677,-0.12055 -0.15524,-0.21268 -0.26283,-0.27523 -0.10748,-0.0614 -0.23076,-0.099 -0.36974,-0.11259 -0.1389,-0.0129 -0.2852,-0.0152 -0.43889,-0.007 l -0.17617,0.009 -0.031,-0.58344 4.25056,-0.22632 c 0.71411,-0.0375 1.35726,0.0387 1.92932,0.22746 0.57206,0.18993 1.06247,0.48449 1.47133,0.88369 0.40875,0.40033 0.73117,0.90188 0.96728,1.50579 0.2361,0.60391 0.37508,1.2988 0.41694,2.08468 z m 70.37028,-4.21258 2.43042,8.77886 c 0.0409,0.14785 0.0876,0.27182 0.13989,0.36962 0.0523,0.099 0.11487,0.17969 0.18766,0.24111 0.0739,0.0614 0.16036,0.10691 0.26044,0.13534 0.10008,0.0296 0.21723,0.0489 0.3537,0.058 l 0.17514,0.0114 -0.0375,0.5823 -3.81452,-0.25021 0.0387,-0.5823 0.31845,0.0205 c 0.33968,0.0227 0.58078,-0.0444 0.72333,-0.2013 0.091,-0.10008 0.14216,-0.23618 0.15354,-0.40829 0.005,-0.0762 10e-4,-0.15581 -0.0114,-0.23883 -0.0136,-0.0819 -0.0341,-0.17628 -0.0637,-0.28319 l -1.22601,-4.65158 c -0.11259,-0.4208 -0.20813,-0.81886 -0.28546,-1.19644 -0.0773,-0.37645 -0.1433,-0.73697 -0.19789,-1.08044 -0.0899,0.33437 -0.19903,0.67783 -0.32868,1.02926 -0.12965,0.35256 -0.28091,0.74039 -0.45378,1.1646 l -1.81741,4.35701 c -0.0432,0.10577 -0.0808,0.21154 -0.11259,0.31617 -0.0318,0.10463 -0.05,0.19562 -0.0546,0.27182 -0.0159,0.23542 0.05,0.4117 0.19675,0.52998 0.14558,0.11828 0.37304,0.18766 0.68011,0.20813 l 0.31845,0.0205 -0.0387,0.5823 -3.38689,-0.22177 0.0387,-0.5823 0.26385,0.0171 c 0.13534,0.009 0.25362,0.002 0.35484,-0.0205 0.10122,-0.0228 0.19448,-0.0717 0.27864,-0.14558 0.0842,-0.0739 0.16491,-0.17856 0.24111,-0.3139 0.0773,-0.13534 0.1615,-0.3139 0.25362,-0.53453 l 3.41191,-8.04984 z m -91.36436,2.50662 5.80116,7.59606 0.98832,-0.0751 -0.62688,-8.31939 c -0.0164,-0.21723 -1.1e-4,-0.39237 0.0487,-0.52771 0.0488,-0.13534 0.12249,-0.24225 0.22098,-0.31958 0.0986,-0.0785 0.21586,-0.13306 0.35177,-0.16605 0.13591,-0.033 0.28285,-0.0557 0.44082,-0.0671 l 0.17605,-0.0136 -0.0439,-0.5823 -3.47958,0.26272 0.0438,0.58116 0.18288,-0.0137 c 0.15338,-0.0114 0.29968,-0.0121 0.43889,-0.002 0.13921,0.0102 0.26329,0.0455 0.37213,0.10463 0.10895,0.0603 0.19846,0.15012 0.26875,0.26954 0.0703,0.11942 0.11316,0.28091 0.1284,0.48335 l 0.46277,6.14031 -5.5397,-7.28899 -2.53869,0.19107 0.0439,0.5823 0.17594,-0.0136 c 0.15354,-0.0114 0.29979,-0.0125 0.439,-0.002 0.13921,0.0102 0.26317,0.0455 0.37213,0.10463 0.10895,0.0603 0.19846,0.15012 0.26875,0.26954 0.0703,0.11942 0.11305,0.28091 0.1284,0.48335 l 0.51224,6.79767 c 0.0163,0.21609 0,0.39237 -0.0488,0.52771 -0.0488,0.13534 -0.12249,0.24111 -0.22098,0.31958 -0.0986,0.0773 -0.21575,0.13306 -0.35177,0.16605 -0.13591,0.033 -0.28285,0.0557 -0.44082,0.0671 l -0.17605,0.0136 0.0439,0.5823 3.47958,-0.26272 -0.0438,-0.5823 -0.18288,0.0136 c -0.15342,0.0114 -0.30093,0.0114 -0.44253,0 -0.14159,-0.0125 -0.26579,-0.05 -0.37269,-0.11146 -0.10679,-0.0625 -0.19562,-0.15695 -0.26636,-0.28319 -0.0707,-0.12624 -0.1143,-0.29797 -0.13068,-0.51406 z m 16.37378,6.22902 c 0.55137,-0.0296 1.02892,-0.14899 1.43244,-0.35939 0.40352,-0.20926 0.73356,-0.50155 0.99002,-0.878 0.25646,-0.37645 0.43957,-0.83251 0.5492,-1.36818 0.10975,-0.53681 0.14626,-1.14868 0.10975,-1.83561 -0.0734,-1.37841 -0.40397,-2.41677 -0.99184,-3.11508 -0.58787,-0.69831 -1.43084,-1.01789 -2.52914,-0.95989 l -1.22033,0.0648 0.45322,8.515 z m 82.53546,1.1646 -0.05,0.58116 7.4266,0.63803 0.35029,-2.96837 -0.72333,-0.0625 -0.22405,1.02357 c -0.0311,0.14709 -0.0788,0.29305 -0.1433,0.43786 -0.0648,0.14444 -0.14899,0.27182 -0.25476,0.38327 -0.10463,0.11146 -0.23315,0.19789 -0.38668,0.25931 -0.1524,0.0625 -0.33323,0.0842 -0.54022,0.066 l -2.73294,-0.23428 0.65964,-7.67681 c 0.0171,-0.20358 0.0614,-0.36394 0.13306,-0.48222 0.0716,-0.11942 0.1615,-0.20813 0.27182,-0.26727 0.10918,-0.058 0.23315,-0.0921 0.37304,-0.10008 0.13875,-0.009 0.28546,-0.007 0.439,0.007 l 0.18197,0.0159 0.05,-0.5823 -4.03061,-0.34574 -0.05,0.58116 0.17514,0.0159 c 0.15809,0.0136 0.3048,0.0375 0.44014,0.0716 0.13648,0.0341 0.25248,0.091 0.35029,0.16946 0.0978,0.0785 0.1706,0.18652 0.21723,0.32186 0.0478,0.13572 0.0622,0.312 0.0432,0.52885 l -0.57775,6.73626 c -0.019,0.21685 -0.0633,0.3882 -0.13306,0.51406 -0.0694,0.1251 -0.15922,0.21836 -0.26954,0.27978 -0.10918,0.0614 -0.23428,0.0967 -0.37304,0.10691 -0.13989,0.0114 -0.28888,0.0102 -0.44582,-0.003 z M 222.04475,312.4016 c 0.0703,0.76199 0.0398,1.46485 -0.0917,2.10856 -0.13147,0.64371 -0.36132,1.20554 -0.68966,1.68662 -0.32834,0.47994 -0.75176,0.86663 -1.27003,1.16005 -0.51838,0.29342 -1.12684,0.47198 -1.82537,0.53681 -0.73459,0.0682 -1.38581,0.006 -1.95355,-0.18766 -0.56786,-0.19334 -1.05258,-0.49586 -1.45439,-0.90871 -0.4017,-0.41322 -0.72173,-0.92577 -0.96011,-1.53764 -0.23827,-0.61187 -0.39283,-1.30108 -0.46357,-2.06762 -0.0707,-0.76541 -0.0448,-1.4694 0.0778,-2.1097 0.1226,-0.64144 0.34381,-1.19872 0.66362,-1.67411 0.3197,-0.47539 0.74334,-0.85867 1.27094,-1.14982 0.5276,-0.29229 1.15869,-0.47198 1.89327,-0.54022 0.69853,-0.0648 1.32712,-0.001 1.88565,0.19107 0.55864,0.19107 1.04314,0.49245 1.4537,0.90188 0.41057,0.40943 0.73925,0.91781 0.98616,1.52513 0.24702,0.60618 0.40602,1.29539 0.47721,2.06535 z m 116.2884,-3.98397 2.12449,8.85847 c 0.0353,0.14899 0.0773,0.27295 0.12624,0.37417 0.05,0.10008 0.10918,0.18197 0.18083,0.2468 0.0705,0.0637 0.15581,0.11146 0.25476,0.14444 0.099,0.033 0.21609,0.0557 0.35143,0.0694 l 0.17514,0.0182 -0.058,0.58003 -3.80315,-0.38213 0.058,-0.58003 0.31731,0.0318 c 0.55387,0.0557 0.85298,-0.13761 0.89733,-0.57889 0.008,-0.0762 0.007,-0.15581 -0.003,-0.23883 -0.009,-0.083 -0.0273,-0.17856 -0.0523,-0.28546 l -1.06452,-4.69252 c -0.0978,-0.42308 -0.17969,-0.82455 -0.24338,-1.20441 -0.0648,-0.37986 -0.11828,-0.74152 -0.16036,-1.08726 -0.1016,0.33058 -0.22329,0.66987 -0.36507,1.01789 -0.14216,0.34688 -0.30594,0.72901 -0.49359,1.14754 l -1.9664,4.29219 c -0.0478,0.10463 -0.0887,0.20813 -0.12397,0.31162 -0.0353,0.10349 -0.0569,0.19334 -0.0648,0.26954 -0.0228,0.23428 0.0364,0.41284 0.17856,0.53681 0.14216,0.12283 0.36621,0.20017 0.67215,0.23087 l 0.31731,0.0318 -0.058,0.58116 -3.3778,-0.33892 0.0591,-0.58116 0.26272,0.0262 c 0.13534,0.0137 0.25362,0.0102 0.35598,-0.009 0.10236,-0.019 0.19675,-0.0641 0.28319,-0.13534 0.0864,-0.0705 0.1706,-0.17173 0.25248,-0.3048 0.0819,-0.13306 0.17173,-0.30821 0.27068,-0.52543 l 3.69055,-7.92588 z m -123.46092,4.64702 c 0.0632,0.68466 0.17048,1.29198 0.32163,1.82083 0.15111,0.52923 0.35651,0.96936 0.61619,1.32041 0.25965,0.35143 0.57764,0.60846 0.95409,0.77109 0.37633,0.16263 0.82148,0.22064 1.3352,0.17287 0.51383,-0.0478 0.94078,-0.18538 1.28095,-0.41512 0.34021,-0.22898 0.60467,-0.53946 0.79338,-0.93145 0.18879,-0.39237 0.30787,-0.86321 0.35734,-1.41026 0.0494,-0.54818 0.0424,-1.1646 -0.0208,-1.84926 -0.0632,-0.68466 -0.16934,-1.29198 -0.31822,-1.82196 -0.14887,-0.52885 -0.35188,-0.96898 -0.60914,-1.317 -0.25726,-0.34915 -0.57161,-0.60391 -0.94339,-0.76541 -0.37167,-0.1615 -0.81431,-0.21836 -1.32814,-0.1706 -0.51372,0.0478 -0.94192,0.18424 -1.28459,0.4117 -0.34267,0.22746 -0.61073,0.53567 -0.80419,0.9269 -0.19349,0.39047 -0.31606,0.8598 -0.36769,1.40798 -0.0516,0.54704 -0.0458,1.16346 0.0174,1.84926 z m -9.90502,5.45111 0.0626,0.58116 7.41136,-0.79839 -0.22541,-2.98088 -0.7223,0.0785 -0.0237,1.04632 c -0.002,0.15126 -0.0209,0.30366 -0.0566,0.4572 -0.0358,0.15467 -0.0945,0.2957 -0.17617,0.42535 -0.0817,0.12965 -0.19152,0.23883 -0.32982,0.32868 -0.1383,0.091 -0.31083,0.14671 -0.51781,0.16832 l -2.72703,0.29456 -0.82523,-7.66089 c -0.0218,-0.20244 -0.009,-0.36962 0.0383,-0.49928 0.0474,-0.13079 0.1193,-0.23542 0.21552,-0.3139 0.0962,-0.0785 0.21188,-0.13534 0.34699,-0.1706 0.135,-0.0353 0.27909,-0.0603 0.43206,-0.0773 l 0.1822,-0.0193 -0.0626,-0.58003 -4.02287,0.43331 0.0625,0.58003 0.17549,-0.0193 c 0.15752,-0.0171 0.30605,-0.0216 0.44571,-0.0136 0.13966,0.008 0.26499,0.0409 0.37611,0.10008 0.111,0.058 0.20278,0.15012 0.27534,0.27409 0.0726,0.12397 0.12044,0.29342 0.14376,0.50951 l 0.72412,6.72375 c 0.0233,0.21609 0.0127,0.39237 -0.0317,0.52885 -0.0445,0.13648 -0.11464,0.24566 -0.21063,0.32641 -0.096,0.0807 -0.21142,0.13989 -0.3462,0.17742 -0.13488,0.0375 -0.28103,0.0648 -0.43854,0.0808 z m 139.64842,3.24018 -0.12852,-0.0159 -0.0762,0.65395 0.23542,0.0284 c 0.44052,0.0516 0.85904,0.0481 1.25558,-0.0102 0.39692,-0.058 0.75062,-0.19334 1.06338,-0.40488 0.31162,-0.21154 0.57206,-0.51292 0.78247,-0.90529 0.2104,-0.39237 0.35143,-0.89847 0.42421,-1.51944 l 0.98718,-8.39445 c 0.025,-0.21533 0.0754,-0.38479 0.15126,-0.50838 0.0762,-0.12283 0.16946,-0.21381 0.27864,-0.27182 0.10918,-0.058 0.23428,-0.0899 0.37645,-0.0955 0.14216,-0.006 0.29001,0 0.44241,0.0182 l 0.18197,0.0205 0.0682,-0.57889 -4.0181,-0.47312 -0.0682,0.58003 0.17514,0.0205 c 0.1524,0.0182 0.29684,0.0455 0.43104,0.0819 0.13534,0.0364 0.25021,0.0944 0.34574,0.17401 0.0955,0.0796 0.16605,0.18424 0.21268,0.31503 0.0455,0.13117 0.0565,0.29759 0.033,0.49928 l -0.994,8.46269 c -0.0569,0.48563 -0.14671,0.88596 -0.2684,1.20213 -0.12131,0.31617 -0.27219,0.56259 -0.45265,0.73925 -0.17969,0.17742 -0.3901,0.29456 -0.63234,0.35029 -0.24111,0.0557 -0.50951,0.066 -0.80635,0.0318 z m -145.34836,-11.95763 4.02265,8.17381 c 0.067,0.13761 0.13545,0.25021 0.2054,0.33778 0.0699,0.0864 0.1466,0.15354 0.22985,0.20017 0.0833,0.0466 0.17674,0.0751 0.28057,0.0853 0.10384,0.0102 0.22314,0.007 0.35791,-0.009 l 0.17514,-0.0216 0.071,0.58003 -3.79394,0.46402 -0.0709,-0.58003 0.31674,-0.0387 c 0.5525,-0.0671 0.80191,-0.32186 0.74801,-0.76199 -0.009,-0.0762 -0.0279,-0.15354 -0.0557,-0.23201 -0.0279,-0.0785 -0.0661,-0.16832 -0.11464,-0.26727 l -2.07001,-4.34223 c -0.18925,-0.39237 -0.357,-0.76541 -0.50314,-1.12138 -0.14614,-0.35711 -0.27796,-0.69831 -0.39555,-1.02585 -0.0262,0.3446 -0.0702,0.70285 -0.13204,1.07248 -0.062,0.37076 -0.13841,0.78019 -0.22939,1.22829 l -0.97399,4.61973 c -0.0228,0.11259 -0.04,0.22291 -0.0519,0.33096 -0.0117,0.10918 -0.013,0.2013 -0.004,0.2775 0.0286,0.23353 0.12582,0.39502 0.29172,0.48449 0.16593,0.0887 0.4017,0.11487 0.70718,0.0773 l 0.31663,-0.0387 0.071,0.58003 -3.3694,0.4117 -0.0709,-0.58003 0.26275,-0.0318 c 0.13488,-0.0159 0.24987,-0.0455 0.34506,-0.0864 0.0953,-0.0409 0.17742,-0.10577 0.24645,-0.19448 0.069,-0.0876 0.12863,-0.20585 0.17901,-0.3537 0.0504,-0.14671 0.1,-0.33778 0.14887,-0.57206 l 1.85517,-8.54343 z m 160.62463,6.15851 c -0.0876,0.67328 -0.24225,1.28288 -0.46402,1.82879 -0.22177,0.54591 -0.5061,1.01561 -0.85184,1.40912 -0.34574,0.39351 -0.74835,0.70172 -1.20896,0.9269 -0.46061,0.22519 -0.97126,0.35256 -1.53195,0.37986 -0.0216,0.47653 0.003,0.88027 0.0751,1.21123 0.0705,0.33096 0.18083,0.60277 0.33096,0.81658 0.15012,0.21381 0.33664,0.37531 0.55955,0.48677 0.22291,0.11146 0.47426,0.18538 0.75176,0.22177 l 0.22291,0.0284 -0.0842,0.64599 -0.59254,-0.0762 c -0.36394,-0.0478 -0.71991,-0.1433 -1.06907,-0.2866 -0.34802,-0.14444 -0.65509,-0.35256 -0.92122,-0.62665 -0.26499,-0.27523 -0.47198,-0.62097 -0.62097,-1.0395 -0.14785,-0.41967 -0.20585,-0.92804 -0.17401,-1.52626 -0.62438,-0.14899 -1.15323,-0.38896 -1.58768,-0.7165 -0.43331,-0.32868 -0.77678,-0.73129 -1.0304,-1.20896 -0.25248,-0.47881 -0.41739,-1.02244 -0.49586,-1.63317 -0.0773,-0.6096 -0.0694,-1.27151 0.0228,-1.98573 0.10008,-0.76313 0.27978,-1.44324 0.54022,-2.04146 0.26044,-0.59822 0.59936,-1.09409 1.01561,-1.48646 0.41625,-0.39351 0.91439,-0.67442 1.49328,-0.84274 0.57889,-0.16946 1.23398,-0.20585 1.96526,-0.11032 0.69489,0.091 1.29425,0.29115 1.79694,0.6005 0.50383,0.30935 0.90984,0.70968 1.22033,1.19986 0.31048,0.49018 0.51975,1.05769 0.62665,1.70368 0.10804,0.64713 0.11146,1.35339 0.0114,2.12107 z m -97.29074,-1.38979 1.35078,-0.025 c 0.39373,-0.007 0.72571,-0.0489 0.99582,-0.12624 0.27022,-0.0773 0.48984,-0.19789 0.65884,-0.36166 0.16912,-0.16377 0.28967,-0.37531 0.36189,-0.63462 0.0723,-0.25931 0.10497,-0.57434 0.0983,-0.94624 -0.007,-0.36166 -0.0463,-0.67556 -0.11896,-0.94169 -0.0728,-0.26499 -0.19334,-0.48449 -0.36166,-0.6585 -0.16843,-0.17287 -0.38919,-0.30025 -0.66225,-0.38213 -0.27303,-0.0804 -0.6132,-0.11714 -1.0205,-0.11032 l -1.37796,0.025 z m -71.30252,6.39393 c -0.44845,0.0614 -0.85062,0.0682 -1.20652,0.0205 -0.35589,-0.0478 -0.66076,-0.13989 -0.91461,-0.27637 -0.25385,-0.13648 -0.45541,-0.31731 -0.60467,-0.54136 -0.14926,-0.22367 -0.24342,-0.47918 -0.2825,-0.76654 -0.0379,-0.27826 0.0179,-0.51406 0.1674,-0.7074 0.14946,-0.1941 0.38339,-0.31276 0.7018,-0.35598 0.0525,0.28546 0.13379,0.555 0.24382,0.80976 0.11001,0.25362 0.25275,0.47198 0.42822,0.65395 0.17546,0.18197 0.3858,0.31731 0.63099,0.40716 0.2452,0.0902 0.52925,0.11335 0.85214,0.0694 0.61887,-0.0842 1.08178,-0.29911 1.38874,-0.64485 0.30696,-0.34574 0.42228,-0.79877 0.34596,-1.35908 -0.0342,-0.25134 -0.10028,-0.46857 -0.19829,-0.65168 -0.098,-0.18311 -0.24111,-0.3446 -0.42932,-0.48563 -0.18821,-0.14103 -0.42821,-0.2684 -0.71998,-0.38213 -0.29176,-0.11297 -0.65075,-0.22519 -1.07695,-0.33664 -0.44985,-0.11714 -0.84755,-0.25362 -1.19312,-0.40943 -0.34558,-0.15581 -0.64039,-0.34233 -0.88444,-0.55728 -0.24405,-0.21609 -0.4381,-0.46743 -0.58215,-0.75403 -0.14404,-0.2866 -0.24171,-0.61794 -0.29299,-0.994 -0.0537,-0.39464 -0.0265,-0.75745 0.0816,-1.08726 0.10811,-0.32982 0.2822,-0.61983 0.52228,-0.8689 0.24007,-0.25021 0.53634,-0.45606 0.88882,-0.61756 0.35247,-0.16263 0.74621,-0.27295 1.18122,-0.33209 0.41258,-0.0569 0.78388,-0.0637 1.11388,-0.0216 0.33001,0.0417 0.61465,0.11942 0.85393,0.23315 0.23928,0.11373 0.42876,0.25476 0.56846,0.42535 0.1397,0.1706 0.22328,0.35711 0.25075,0.55955 0.0403,0.2957 -0.0269,0.53226 -0.20151,0.70854 -0.17462,0.17742 -0.42787,0.28774 -0.75972,0.33323 -0.0293,-0.21495 -0.0839,-0.42421 -0.16391,-0.62552 -0.0799,-0.2013 -0.19162,-0.37531 -0.33499,-0.52316 -0.14336,-0.14709 -0.32072,-0.25893 -0.53209,-0.3355 -0.21137,-0.0762 -0.46279,-0.0944 -0.75429,-0.0546 -0.26459,0.0364 -0.49612,0.10577 -0.69457,0.20813 -0.19846,0.10236 -0.36013,0.23201 -0.48502,0.38782 -0.12489,0.15581 -0.21232,0.3355 -0.26231,0.53908 -0.05,0.20358 -0.0588,0.42421 -0.0264,0.66191 0.0372,0.27295 0.10593,0.50951 0.20607,0.70854 0.10015,0.19789 0.24575,0.37076 0.43682,0.5152 0.19107,0.14558 0.43361,0.27523 0.72761,0.38782 0.29402,0.11259 0.65157,0.22291 1.07268,0.32982 0.42619,0.11146 0.8099,0.2377 1.15109,0.37759 0.34119,0.14103 0.63708,0.31048 0.88766,0.5061 0.25057,0.19675 0.45324,0.42763 0.60799,0.69148 0.15476,0.26499 0.25626,0.57434 0.30448,0.92804 0.0592,0.43559 0.0326,0.83478 -0.0799,1.19986 -0.11249,0.36507 -0.30056,0.68579 -0.56418,0.96443 -0.26362,0.2775 -0.59557,0.50648 -0.99585,0.68693 -0.40028,0.18045 -0.85828,0.30556 -1.37401,0.37531 z m 161.45099,-5.93559 c -0.0899,0.68238 -0.11828,1.2988 -0.0876,1.84812 0.0311,0.54894 0.13496,1.0232 0.31162,1.42277 0.17514,0.40033 0.4299,0.71991 0.76086,0.96216 0.33096,0.24225 0.7529,0.39578 1.26468,0.46288 0.51179,0.066 0.95761,0.025 1.34088,-0.12283 0.38213,-0.14899 0.70854,-0.39464 0.97808,-0.73584 0.27068,-0.34119 0.49018,-0.77337 0.6585,-1.29653 0.16946,-0.52316 0.29797,-1.12593 0.38668,-1.80831 0.0887,-0.68238 0.11942,-1.29766 0.0899,-1.84698 -0.0284,-0.54932 -0.12965,-1.02244 -0.30366,-1.41936 -0.17401,-0.39692 -0.42535,-0.71536 -0.7529,-0.9542 -0.32641,-0.23883 -0.74607,-0.39123 -1.25786,-0.45833 -0.51179,-0.0671 -0.95989,-0.0273 -1.34316,0.11942 -0.38441,0.14558 -0.71423,0.38782 -0.98832,0.72674 -0.27523,0.33892 -0.49814,0.76996 -0.66874,1.29312 -0.1706,0.52202 -0.30025,1.12479 -0.38896,1.80718 z" style="fill:#ffffff" />
  <path d="m 156.13816,184.78691 c 6.52783,-15.43353 15.74285,-29.10143 27.64506,-41.00368 11.90226,-11.90229 25.57016,-21.11731 41.00369,-27.64506 15.97944,-6.75878 32.71715,-10.13816 50.21315,-10.13816 17.4963,0 34.23401,3.37939 50.21315,10.13816 15.43323,6.52768 29.10136,15.74269 41.00439,27.64505 11.9019,11.90177 21.11634,25.56967 27.64447,41.00369 6.75862,15.97944 10.13794,32.71715 10.13794,50.21315 0,17.49482 -3.37893,34.23288 -10.13794,50.21315 -1.43604,3.39448 -3.00173,6.70365 -4.69707,9.92753 -0.005,-0.0262 -0.0102,-0.0534 -0.0159,-0.0796 -0.0148,-0.0648 -0.0318,-0.12965 -0.0534,-0.1922 -0.0205,-0.0637 -0.0444,-0.12624 -0.0717,-0.18766 -0.0262,-0.0603 -0.0557,-0.12055 -0.0887,-0.17856 -0.033,-0.058 -0.0694,-0.11487 -0.10691,-0.16946 -0.0387,-0.0546 -0.0796,-0.10691 -0.12283,-0.15809 -0.0432,-0.0512 -0.0887,-0.099 -0.13761,-0.14444 -0.0489,-0.0466 -0.099,-0.0898 -0.15126,-0.13193 -0.0523,-0.0409 -0.10691,-0.0796 -0.16377,-0.11487 -0.0557,-0.0364 -0.11373,-0.0694 -0.17287,-0.099 -0.0599,-0.0303 -0.12093,-0.0576 -0.18311,-0.0819 -0.0625,-0.0239 -0.1251,-0.0455 -0.18993,-0.0625 -0.002,0 -0.003,-10e-4 -0.006,-10e-4 1.53991,-2.96723 2.96723,-6.00724 4.28423,-9.12005 6.65096,-15.72741 9.97644,-32.20051 9.97644,-49.41931 0,-17.2205 -3.32548,-33.69357 -9.97644,-49.41908 -6.42464,-15.18984 -15.49464,-28.64189 -27.21002,-40.35624 -11.715,-11.71492 -25.16704,-20.78463 -40.35613,-27.20911 -15.72589,-6.65141 -32.199,-9.97712 -49.41931,-9.97712 -17.22039,0 -33.69342,3.32571 -49.41908,9.97712 -15.18939,6.42456 -28.64147,15.49426 -40.35625,27.2091 -11.71484,11.71478 -20.78454,25.16686 -27.2091,40.35625 -6.65141,15.72567 -9.97712,32.19869 -9.97712,49.41908 0,17.22031 3.32571,33.69342 9.97712,49.41931 1.31662,3.11242 2.74432,6.15206 4.28309,9.11891 -0.14785,0.0409 -0.2899,0.0978 -0.42626,0.17173 -0.11771,0.0637 -0.22814,0.13875 -0.3313,0.22405 -0.10304,0.0853 -0.19675,0.17969 -0.28126,0.28319 -0.0844,0.10349 -0.15786,0.21495 -0.22041,0.33437 -0.0625,0.11828 -0.11293,0.24111 -0.15115,0.36962 -0.0216,0.0728 -0.0392,0.14558 -0.0525,0.2195 -1.69587,-3.22388 -3.26175,-6.53306 -4.69764,-9.92753 C 149.37938,269.23405 146,252.49633 146,235.00003 c 0,-17.49599 3.37939,-34.23371 10.13816,-50.21315 z m 41.90707,153.78068 c 8.23166,6.13766 17.14555,11.23581 26.74168,15.29448 15.98016,6.759 32.71787,10.13794 50.21315,10.13794 17.4963,0 34.23401,-3.37931 50.21315,-10.13794 9.59658,-4.05904 18.51077,-9.15758 26.74259,-15.29448 -0.0762,-10e-4 -0.15126,-0.007 -0.22632,-0.0159 -0.90909,-0.11752 -1.81931,-0.23277 -2.73067,-0.34574 -7.61312,5.47499 -15.80626,10.06818 -24.57943,13.77959 -15.72551,6.65096 -32.19903,9.97644 -49.41931,9.97644 -17.21955,0 -33.69258,-3.32548 -49.41908,-9.97644 -8.77241,-3.71065 -16.96575,-8.30384 -24.58,-13.77959 -0.90916,0.11297 -1.81912,0.22822 -2.72987,0.34574 -0.0752,0.009 -0.15047,0.0148 -0.22587,0.0159 z" style="fill:#ffffff" />
</svg>